<svg width="18.25in" height="16.125in" viewBox="0 0 18.25 16.125" xmlns="http://www.w3.org/2000/svg" version="1.1" preserveAspectRatio="xMidYMid meet"><g id="svgGroup" stroke-linecap="round" fill-rule="evenodd" font-size="9pt" stroke="#000" stroke-width="0.25mm" fill="none" style="stroke:#000;stroke-width:0.25mm;fill:none"><path d="M 0 8.125 L 0 9.47 L 0.236 9.47 L 0.236 10.532 L 0 10.532 L 0 11.594 L 0.236 11.594 L 0.236 12.656 L 0 12.656 L 0 13.718 L 0.236 13.718 L 0.236 14.78 L 0 14.78 L 0 15.842 L 0 16.125 L 0.907 16.125 L 0.907 15.889 L 1.969 15.889 L 1.969 16.125 L 3.031 16.125 L 3.031 15.889 L 4.093 15.889 L 4.093 16.125 L 5 16.125 L 5 14.78 L 4.764 14.78 L 4.764 13.718 L 5 13.718 L 5 12.656 L 4.764 12.656 L 4.764 11.594 L 5 11.594 L 5 10.532 L 4.764 10.532 L 4.764 9.47 L 5 9.47 L 5 8.408 L 5 8.125 L 4.093 8.125 L 4.093 8.361 L 3.031 8.361 L 3.031 8.125 L 1.969 8.125 L 1.969 8.361 L 0.907 8.361 L 0.907 8.125 L 0 8.125 Z" id="front_outsideCutPath" stroke="#FF0000" stroke-width="0.1" style="stroke:#FF0000;stroke-width:0.1" vector-effect="non-scaling-stroke"/><path d="M 5.361 8.125 L 5.361 9.47 L 5.125 9.47 L 5.125 10.532 L 5.361 10.532 L 5.361 11.594 L 5.125 11.594 L 5.125 12.656 L 5.361 12.656 L 5.361 13.718 L 5.125 13.718 L 5.125 14.78 L 5.361 14.78 L 5.361 15.842 L 5.361 16.125 L 6.47 16.125 L 6.47 15.889 L 7.532 15.889 L 7.532 16.125 L 8.594 16.125 L 8.594 15.889 L 9.656 15.889 L 9.656 16.125 L 10.718 16.125 L 10.718 15.889 L 11.78 15.889 L 11.78 16.125 L 12.842 16.125 L 12.889 16.125 L 12.889 14.78 L 13.125 14.78 L 13.125 13.718 L 12.889 13.718 L 12.889 12.656 L 13.125 12.656 L 13.125 11.594 L 12.889 11.594 L 12.889 10.532 L 13.125 10.532 L 13.125 9.47 L 12.889 9.47 L 12.889 8.408 L 12.889 8.125 L 11.78 8.125 L 11.78 8.361 L 10.718 8.361 L 10.718 8.125 L 9.656 8.125 L 9.656 8.361 L 8.594 8.361 L 8.594 8.125 L 7.532 8.125 L 7.532 8.361 L 6.47 8.361 L 6.47 8.125 L 5.408 8.125 L 5.361 8.125 Z" id="left_outsideCutPath" stroke="#FF0000" stroke-width="0.1" style="stroke:#FF0000;stroke-width:0.1" vector-effect="non-scaling-stroke"/><path d="M 13.486 8.361 L 13.486 9.47 L 13.25 9.47 L 13.25 10.532 L 13.486 10.532 L 13.486 11.594 L 13.25 11.594 L 13.25 12.656 L 13.486 12.656 L 13.486 13.718 L 13.25 13.718 L 13.25 14.78 L 13.486 14.78 L 13.486 15.842 L 13.486 15.889 L 14.157 15.889 L 14.157 16.125 L 15.219 16.125 L 15.219 15.889 L 16.281 15.889 L 16.281 16.125 L 17.343 16.125 L 17.343 15.889 L 18.014 15.889 L 18.014 14.78 L 18.25 14.78 L 18.25 13.718 L 18.014 13.718 L 18.014 12.656 L 18.25 12.656 L 18.25 11.594 L 18.014 11.594 L 18.014 10.532 L 18.25 10.532 L 18.25 9.47 L 18.014 9.47 L 18.014 8.408 L 18.014 8.361 L 17.343 8.361 L 17.343 8.125 L 16.281 8.125 L 16.281 8.361 L 15.219 8.361 L 15.219 8.125 L 14.157 8.125 L 14.157 8.361 L 13.486 8.361 Z" id="top_outsideCutPath" stroke="#FF0000" stroke-width="0.1" style="stroke:#FF0000;stroke-width:0.1" vector-effect="non-scaling-stroke"/><path d="M 0 0 L 0 1.345 L 0.236 1.345 L 0.236 2.407 L 0 2.407 L 0 3.469 L 0.236 3.469 L 0.236 4.531 L 0 4.531 L 0 5.593 L 0.236 5.593 L 0.236 6.655 L 0 6.655 L 0 7.717 L 0 8 L 0.907 8 L 0.907 7.764 L 1.969 7.764 L 1.969 8 L 3.031 8 L 3.031 7.764 L 4.093 7.764 L 4.093 8 L 5 8 L 5 6.655 L 4.764 6.655 L 4.764 5.593 L 5 5.593 L 5 4.531 L 4.764 4.531 L 4.764 3.469 L 5 3.469 L 5 2.407 L 4.764 2.407 L 4.764 1.345 L 5 1.345 L 5 0.283 L 5 0 L 4.093 0 L 4.093 0.236 L 3.031 0.236 L 3.031 0 L 1.969 0 L 1.969 0.236 L 0.907 0.236 L 0.907 0 L 0 0 Z" id="back_outsideCutPath" stroke="#FF0000" stroke-width="0.1" style="stroke:#FF0000;stroke-width:0.1" vector-effect="non-scaling-stroke"/><path d="M 5.361 0 L 5.361 1.345 L 5.125 1.345 L 5.125 2.407 L 5.361 2.407 L 5.361 3.469 L 5.125 3.469 L 5.125 4.531 L 5.361 4.531 L 5.361 5.593 L 5.125 5.593 L 5.125 6.655 L 5.361 6.655 L 5.361 7.717 L 5.361 8 L 6.47 8 L 6.47 7.764 L 7.532 7.764 L 7.532 8 L 8.594 8 L 8.594 7.764 L 9.656 7.764 L 9.656 8 L 10.718 8 L 10.718 7.764 L 11.78 7.764 L 11.78 8 L 12.842 8 L 12.889 8 L 12.889 6.655 L 13.125 6.655 L 13.125 5.593 L 12.889 5.593 L 12.889 4.531 L 13.125 4.531 L 13.125 3.469 L 12.889 3.469 L 12.889 2.407 L 13.125 2.407 L 13.125 1.345 L 12.889 1.345 L 12.889 0.283 L 12.889 0 L 11.78 0 L 11.78 0.236 L 10.718 0.236 L 10.718 0 L 9.656 0 L 9.656 0.236 L 8.594 0.236 L 8.594 0 L 7.532 0 L 7.532 0.236 L 6.47 0.236 L 6.47 0 L 5.408 0 L 5.361 0 Z" id="right_outsideCutPath" stroke="#FF0000" stroke-width="0.1" style="stroke:#FF0000;stroke-width:0.1" vector-effect="non-scaling-stroke"/><path d="M 13.486 0.236 L 13.486 1.345 L 13.25 1.345 L 13.25 2.407 L 13.486 2.407 L 13.486 3.469 L 13.25 3.469 L 13.25 4.531 L 13.486 4.531 L 13.486 5.593 L 13.25 5.593 L 13.25 6.655 L 13.486 6.655 L 13.486 7.717 L 13.486 7.764 L 14.157 7.764 L 14.157 8 L 15.219 8 L 15.219 7.764 L 16.281 7.764 L 16.281 8 L 17.343 8 L 17.343 7.764 L 18.014 7.764 L 18.014 6.655 L 18.25 6.655 L 18.25 5.593 L 18.014 5.593 L 18.014 4.531 L 18.25 4.531 L 18.25 3.469 L 18.014 3.469 L 18.014 2.407 L 18.25 2.407 L 18.25 1.345 L 18.014 1.345 L 18.014 0.283 L 18.014 0.236 L 17.343 0.236 L 17.343 0 L 16.281 0 L 16.281 0.236 L 15.219 0.236 L 15.219 0 L 14.157 0 L 14.157 0.236 L 13.486 0.236 Z" id="bottom_outsideCutPath" stroke="#FF0000" stroke-width="0.1" style="stroke:#FF0000;stroke-width:0.1" vector-effect="non-scaling-stroke"/></g></svg>